<?xml version="1.0" encoding="UTF-8"?>
<svg id="Layer_1" xmlns="http://www.w3.org/2000/svg" version="1.1" viewBox="0 0 574.86 553.57">
  <!-- Generator: Adobe Illustrator 30.3.0, SVG Export Plug-In . SVG Version: 2.1.3 Build 182)  -->
  <defs>
    <style>
      .st0 {
        fill: #f9f5ed;
      }

      .st0, .st1 {
        fill-rule: evenodd;
      }

      .st2 {
        fill: #1f523c;
      }

      .st1 {
        fill: #afceb3;
      }
    </style>
  </defs>
  <path class="st2" d="M294.12,148.22c0,3.67-3.01,6.69-6.69,6.69s-6.59-3.01-6.59-6.69v-32.21c0-3.67,2.92-6.59,6.59-6.59s6.69,2.92,6.69,6.59v32.21Z"/>
  <path class="st2" d="M383.03,190.6c-2.54,2.54-6.78,2.54-9.32,0-2.64-2.64-2.64-6.78,0-9.42l22.7-22.79c2.64-2.54,6.88-2.54,9.42,0,2.64,2.64,2.64,6.88,0,9.42l-22.8,22.79Z"/>
  <path class="st2" d="M416,283.47c-3.58,0-6.59-3.01-6.59-6.69s3.01-6.59,6.59-6.59h32.21c3.67,0,6.69,2.92,6.69,6.59s-3.01,6.69-6.69,6.69h-32.21Z"/>
  <path class="st2" d="M373.71,372.48c-2.64-2.64-2.64-6.78,0-9.42,2.54-2.64,6.78-2.64,9.32,0l22.8,22.79c2.64,2.54,2.64,6.78,0,9.32-2.54,2.64-6.78,2.64-9.42,0l-22.7-22.7Z"/>
  <path class="st2" d="M280.84,405.45c0-3.67,2.92-6.69,6.59-6.69s6.69,3.01,6.69,6.69v32.21c0,3.67-3.01,6.59-6.69,6.59s-6.59-2.92-6.59-6.59v-32.21Z"/>
  <path class="st2" d="M191.83,363.06c2.54-2.64,6.78-2.64,9.42,0,2.54,2.64,2.54,6.78,0,9.42l-22.8,22.7c-2.63,2.64-6.78,2.64-9.42,0-2.54-2.54-2.54-6.78,0-9.32l22.79-22.79Z"/>
  <path class="st2" d="M158.86,270.19c3.68,0,6.59,2.92,6.59,6.59s-2.92,6.69-6.59,6.69h-32.21c-3.67,0-6.69-3.01-6.69-6.69s3.02-6.59,6.69-6.59h32.21Z"/>
  <path class="st0" d="M287.43,73.9c11.68,0,21.1,9.42,21.1,21s-9.42,21.1-21.1,21.1-21.1-9.42-21.1-21.1,9.42-21,21.1-21h0Z"/>
  <path class="st2" d="M287.43,67.21c7.63,0,14.6,3.11,19.59,8.1,5.08,5.09,8.1,11.96,8.1,19.59s-3.01,14.6-8.1,19.69c-4.99,4.99-11.96,8.1-19.59,8.1s-14.6-3.11-19.59-8.1c-4.99-5.08-8.1-11.96-8.1-19.69s3.11-14.51,8.1-19.59c4.99-4.99,11.96-8.1,19.59-8.1h0ZM297.6,84.73c-2.54-2.64-6.21-4.24-10.17-4.24s-7.63,1.6-10.17,4.24c-2.64,2.64-4.24,6.22-4.24,10.17s1.6,7.63,4.24,10.27c2.54,2.64,6.22,4.24,10.17,4.24s7.63-1.6,10.17-4.24c2.64-2.64,4.24-6.22,4.24-10.27s-1.6-7.53-4.24-10.17h0Z"/>
  <path class="st0" d="M430.98,133.33c8.19,8.2,8.19,21.57,0,29.76-8.29,8.29-21.57,8.29-29.86,0-8.2-8.19-8.2-21.57,0-29.76,8.29-8.29,21.57-8.29,29.86,0h0Z"/>
  <path class="st2" d="M435.69,128.62c5.37,5.46,8.1,12.53,8.1,19.59s-2.73,14.22-8.1,19.59c-5.46,5.46-12.53,8.1-19.68,8.1s-14.13-2.64-19.5-8.1h-.09c-5.37-5.46-8.1-12.53-8.1-19.59s2.73-14.22,8.1-19.59c5.46-5.46,12.53-8.1,19.59-8.1s14.22,2.64,19.59,8.1h.09ZM430.51,148.22c0-3.67-1.42-7.44-4.24-10.17-2.83-2.83-6.5-4.24-10.27-4.24s-7.35,1.41-10.17,4.24c-2.83,2.83-4.24,6.5-4.24,10.17s1.42,7.44,4.24,10.17v.09c2.83,2.73,6.5,4.14,10.17,4.14s7.44-1.41,10.27-4.24c2.82-2.73,4.24-6.5,4.24-10.17h0Z"/>
  <path class="st0" d="M490.41,276.79c0,11.68-9.42,21.1-21.1,21.1s-21.1-9.42-21.1-21.1,9.42-21,21.1-21,21.1,9.42,21.1,21h0Z"/>
  <path class="st2" d="M497.01,276.79c0,7.72-3.11,14.6-8.1,19.69-4.99,4.99-11.96,8.1-19.59,8.1s-14.6-3.11-19.59-8.1c-4.99-5.09-8.1-11.96-8.1-19.69s3.11-14.51,8.1-19.59c4.99-4.99,11.96-8.1,19.59-8.1s14.6,3.11,19.59,8.1c4.99,4.99,8.1,11.96,8.1,19.59h0ZM479.49,287.05c2.63-2.64,4.33-6.22,4.33-10.27s-1.7-7.54-4.33-10.17c-2.54-2.64-6.22-4.24-10.17-4.24s-7.63,1.6-10.17,4.24c-2.64,2.64-4.24,6.22-4.24,10.17s1.6,7.63,4.24,10.27c2.54,2.64,6.22,4.24,10.17,4.24s7.63-1.6,10.17-4.24h0Z"/>
  <path class="st0" d="M430.98,420.33c-8.29,8.2-21.57,8.2-29.86,0-8.2-8.19-8.2-21.57,0-29.76,8.29-8.29,21.57-8.29,29.86,0,8.19,8.19,8.19,21.57,0,29.76h0Z"/>
  <path class="st2" d="M435.59,425.04c-5.37,5.37-12.43,8.1-19.59,8.1s-14.13-2.73-19.59-8.1h0c-5.37-5.46-8.1-12.53-8.1-19.59s2.73-14.22,8.1-19.59c5.46-5.46,12.53-8.19,19.59-8.19s14.22,2.73,19.59,8.19h.09c5.37,5.37,8.1,12.53,8.1,19.59s-2.73,14.13-8.1,19.59h-.09ZM416,419.86c3.77,0,7.44-1.41,10.27-4.24h0c2.82-2.83,4.24-6.5,4.24-10.17s-1.42-7.44-4.24-10.27c-2.83-2.83-6.5-4.14-10.27-4.14s-7.35,1.41-10.17,4.14c-2.83,2.83-4.24,6.59-4.24,10.27s1.42,7.35,4.24,10.17h0c2.83,2.83,6.5,4.24,10.17,4.24h0Z"/>
  <path class="st0" d="M287.43,479.77c-11.68,0-21.1-9.42-21.1-21.1s9.42-21,21.1-21,21.1,9.42,21.1,21-9.42,21.1-21.1,21.1h0Z"/>
  <path class="st2" d="M287.43,486.36c-7.63,0-14.6-3.01-19.59-8.01-4.99-5.09-8.1-11.96-8.1-19.69s3.11-14.5,8.1-19.59c4.99-4.99,11.96-8.1,19.59-8.1s14.6,3.11,19.59,8.1c5.08,5.09,8.1,11.96,8.1,19.59s-3.01,14.6-8.1,19.69c-4.99,4.99-11.87,8.01-19.59,8.01h0ZM277.26,468.94c2.64,2.64,6.22,4.24,10.17,4.24s7.63-1.6,10.17-4.24c2.64-2.64,4.24-6.22,4.24-10.27s-1.6-7.54-4.24-10.17c-2.54-2.64-6.21-4.24-10.17-4.24s-7.63,1.6-10.17,4.24c-2.64,2.64-4.24,6.22-4.24,10.17s1.6,7.63,4.24,10.27h0Z"/>
  <path class="st0" d="M143.89,420.33c-8.2-8.19-8.2-21.57,0-29.76,8.29-8.29,21.66-8.29,29.86,0,8.19,8.19,8.19,21.57,0,29.76-8.19,8.2-21.57,8.2-29.86,0h0Z"/>
  <path class="st2" d="M139.27,425.04c-5.46-5.46-8.19-12.53-8.19-19.59s2.73-14.22,8.19-19.59h0c5.37-5.46,12.43-8.19,19.59-8.19s14.13,2.73,19.59,8.19h0c5.37,5.37,8.1,12.53,8.1,19.59s-2.73,14.13-8.1,19.59h0c-5.46,5.37-12.53,8.1-19.59,8.1s-14.22-2.73-19.59-8.1h0ZM144.35,405.45c0,3.67,1.42,7.35,4.24,10.17,2.83,2.83,6.5,4.24,10.26,4.24s7.35-1.41,10.18-4.24h0c2.82-2.83,4.24-6.5,4.24-10.17s-1.42-7.44-4.24-10.27c-2.83-2.83-6.5-4.14-10.18-4.14s-7.44,1.41-10.26,4.14h0c-2.83,2.83-4.24,6.5-4.24,10.27h0Z"/>
  <path class="st0" d="M84.45,276.79c0-11.59,9.51-21,21.1-21s21.1,9.42,21.1,21-9.42,21.1-21.1,21.1-21.1-9.42-21.1-21.1h0Z"/>
  <path class="st2" d="M77.86,276.79c0-7.63,3.11-14.6,8.1-19.59,4.99-4.99,11.96-8.1,19.59-8.1s14.6,3.11,19.59,8.1c5.08,5.08,8.19,11.96,8.19,19.59s-3.11,14.6-8.19,19.69c-4.99,4.99-11.96,8.1-19.59,8.1s-14.6-3.11-19.59-8.1c-4.99-5.09-8.1-11.96-8.1-19.69h0ZM95.37,266.61c-2.63,2.64-4.24,6.22-4.24,10.17s1.6,7.63,4.24,10.27c2.54,2.64,6.22,4.24,10.18,4.24s7.63-1.6,10.27-4.24c2.54-2.64,4.14-6.22,4.14-10.27s-1.6-7.54-4.14-10.17c-2.64-2.64-6.31-4.24-10.27-4.24s-7.63,1.6-10.18,4.24h0Z"/>
  <path class="st0" d="M143.89,133.33c8.29-8.29,21.66-8.29,29.86,0,8.19,8.2,8.19,21.57,0,29.76-8.19,8.29-21.57,8.29-29.86,0-8.2-8.19-8.2-21.57,0-29.76h0Z"/>
  <path class="st2" d="M139.27,128.62c5.37-5.46,12.43-8.1,19.59-8.1s14.13,2.64,19.59,8.1h0c5.37,5.46,8.1,12.53,8.1,19.59s-2.73,14.22-8.1,19.59c-5.46,5.46-12.53,8.1-19.59,8.1s-14.22-2.64-19.59-8.1h0c-5.46-5.37-8.19-12.53-8.19-19.59s2.73-14.13,8.19-19.59h0ZM158.86,133.8c-3.76,0-7.44,1.41-10.26,4.24h0c-2.83,2.73-4.24,6.5-4.24,10.17s1.42,7.44,4.24,10.17v.09c2.83,2.73,6.5,4.14,10.26,4.14s7.35-1.41,10.18-4.24c2.82-2.73,4.24-6.5,4.24-10.17s-1.42-7.44-4.24-10.17c-2.83-2.83-6.5-4.24-10.18-4.24h0Z"/>
  <path class="st2" d="M201.25,181.18c2.54,2.64,2.54,6.78,0,9.42-2.64,2.54-6.88,2.54-9.42,0l-22.79-22.79c-2.54-2.54-2.54-6.78,0-9.42,2.63-2.54,6.78-2.54,9.42,0l22.8,22.79Z"/>
  <path class="st1" d="M287.43,148.22c71.02,0,128.57,57.55,128.57,128.57s-57.55,128.66-128.57,128.66-128.57-57.55-128.57-128.66,57.55-128.57,128.57-128.57h0Z"/>
  <path class="st2" d="M287.43,141.53c37.39,0,71.21,15.16,95.6,39.65,24.49,24.49,39.65,58.31,39.65,95.6s-15.16,71.21-39.65,95.7c-24.4,24.49-58.21,39.56-95.6,39.56s-71.11-15.07-95.6-39.56c-24.49-24.49-39.65-58.3-39.65-95.7s15.16-71.12,39.65-95.6c24.49-24.49,58.31-39.65,95.6-39.65h0ZM373.71,190.6c-22.13-22.04-52.56-35.7-86.28-35.7s-64.14,13.66-86.18,35.7c-22.13,22.04-35.79,52.56-35.79,86.19s13.66,64.24,35.79,86.28c22.04,22.04,52.56,35.7,86.18,35.7s64.15-13.66,86.28-35.7c22.04-22.04,35.7-52.56,35.7-86.28s-13.66-64.15-35.7-86.19h0Z"/>
  <path class="st0" d="M231.39,230.54v37.68c-4.33-3.67-9.89-5.93-16.01-5.93-13.38,0-24.3,10.93-24.3,24.3s10.93,24.4,24.3,24.4c6.12,0,11.68-2.26,16.01-6.03v23.27c0,8,6.5,14.5,14.41,14.5h83.27c7.91,0,14.41-6.5,14.41-14.5v-23.27c4.33,3.77,9.89,6.03,16.01,6.03,13.47,0,24.3-10.93,24.3-24.4s-10.83-24.3-24.3-24.3c-6.12,0-11.68,2.26-16.01,5.93v-37.68h-37.68c3.77-4.24,5.93-9.89,5.93-16.01,0-13.37-10.83-24.3-24.3-24.3s-24.3,10.93-24.3,24.3c0,6.12,2.26,11.77,5.93,16.01h-37.68Z"/>
  <path class="st2" d="M237.98,237.23v30.99c0,3.67-2.92,6.69-6.59,6.69-1.79,0-3.29-.66-4.52-1.79-1.6-1.32-3.39-2.36-5.28-3.11-1.88-.66-3.95-1.04-6.21-1.04-4.9,0-9.33,1.98-12.53,5.09v.09c-3.2,3.2-5.18,7.54-5.18,12.43s1.98,9.33,5.18,12.53l.28.28c3.2,3.01,7.54,4.9,12.25,4.9,2.26,0,4.33-.38,6.21-1.04,1.98-.75,3.77-1.88,5.37-3.3,2.83-2.36,6.97-2.07,9.42.66,1.13,1.22,1.6,2.83,1.6,4.33v23.27c0,2.17.94,4.14,2.36,5.56l.19.19c1.41,1.32,3.3,2.07,5.27,2.07h83.27c2.17,0,4.14-.85,5.56-2.26h-.09c1.51-1.41,2.35-3.39,2.35-5.56v-23.27c0-3.67,3.01-6.59,6.59-6.59,1.79,0,3.39.66,4.52,1.7,1.6,1.41,3.39,2.45,5.28,3.2,1.88.66,3.96,1.04,6.22,1.04,4.9,0,9.33-1.98,12.53-5.18h0c3.2-3.2,5.18-7.63,5.18-12.53s-1.98-9.23-5.18-12.43l-.28-.38c-3.2-3.01-7.54-4.8-12.24-4.8-2.26,0-4.33.38-6.22,1.04-1.98.75-3.77,1.88-5.37,3.3-2.83,2.35-6.97,2.07-9.42-.66-1.04-1.32-1.6-2.82-1.6-4.43v-30.99h-31.08c-3.67,0-6.59-3.01-6.59-6.69,0-1.69.66-3.3,1.7-4.52,1.32-1.51,2.45-3.3,3.11-5.27.75-1.88,1.13-3.96,1.13-6.22,0-4.9-1.98-9.23-5.18-12.43-3.2-3.2-7.63-5.18-12.53-5.18s-9.33,1.98-12.53,5.18l-.29.28c-3.01,3.11-4.9,7.44-4.9,12.15,0,2.26.38,4.33,1.13,6.22.75,1.98,1.79,3.86,3.2,5.46,2.45,2.73,2.17,6.97-.66,9.32-1.22,1.13-2.73,1.7-4.33,1.7h-31.08ZM224.7,257.1v-26.56c0-3.67,3.01-6.69,6.69-6.69h26.56c-.94-2.92-1.51-6.03-1.51-9.33,0-8.29,3.3-15.92,8.76-21.48l.38-.38c5.55-5.65,13.28-9.04,21.85-9.04s16.3,3.39,21.85,9.04h.1c5.56,5.65,9.04,13.37,9.04,21.85,0,3.3-.47,6.41-1.41,9.33h26.47c3.67,0,6.69,3.01,6.69,6.69v26.56c3.01-.94,6.12-1.51,9.33-1.51,8.38,0,15.92,3.39,21.47,8.76l.47.38c5.56,5.56,9.04,13.38,9.04,21.85s-3.49,16.3-9.04,21.95h-.09c-5.56,5.56-13.28,9.04-21.85,9.04-3.2,0-6.31-.47-9.33-1.41v12.06c0,5.84-2.36,11.11-6.22,14.98v-.09.09c-3.86,3.77-9.14,6.12-14.88,6.12h-83.27c-5.55,0-10.64-2.17-14.41-5.75l-.47-.38c-3.86-3.86-6.22-9.14-6.22-14.98v-12.06c-2.92.94-6.12,1.41-9.32,1.41-8.29,0-15.92-3.3-21.48-8.67l-.38-.38c-5.65-5.65-9.13-13.38-9.13-21.95s3.48-16.29,9.13-21.85h0c5.56-5.65,13.38-9.14,21.86-9.14,3.2,0,6.4.56,9.32,1.51h0Z"/>
  <path class="st2" d="M308.25,262.28c2.45-2.73,6.59-3.01,9.42-.66,2.73,2.45,3.01,6.59.56,9.42l-34.85,39.75c-2.36,2.83-6.59,3.11-9.33.66-.28-.19-.47-.47-.66-.66l-16.77-19.12c-2.45-2.82-2.16-6.97.66-9.42,2.73-2.36,6.87-2.07,9.32.66l11.78,13.47,29.86-34.1Z"/>
</svg>