<?xml version="1.0" encoding="UTF-8"?>
<svg id="Layer_1" xmlns="http://www.w3.org/2000/svg" version="1.1" viewBox="0 0 574.86 553.57">
  <!-- Generator: Adobe Illustrator 30.3.0, SVG Export Plug-In . SVG Version: 2.1.3 Build 182)  -->
  <defs>
    <style>
      .st0 {
        fill: #f9f5ed;
      }

      .st0, .st1 {
        fill-rule: evenodd;
      }

      .st2 {
        fill: #1f523c;
      }

      .st1 {
        fill: #afceb3;
      }
    </style>
  </defs>
  <path class="st1" d="M259.78,103.66h55.39c10.36,0,18.93,8.57,18.93,18.93v32.02c19.59,6.41,37.3,16.86,52.37,30.33l27.79-16.01c8.95-5.27,20.63-2.17,25.81,6.88l27.69,47.94c5.18,9.04,2.07,20.72-6.88,25.9l-27.69,16.01c1.98,9.79,3.01,19.87,3.01,30.23s-1.04,20.53-3.01,30.33l27.69,16.01c8.95,5.18,12.06,16.77,6.88,25.81l-27.69,47.94c-5.18,9.04-16.86,12.15-25.81,6.97l-27.79-16.01c-13.85,12.34-30.05,22.13-47.85,28.73h-102.39c-17.8-6.59-34-16.39-47.85-28.73l-27.69,16.01c-9.04,5.18-20.63,2.07-25.9-6.97l-27.69-47.94c-5.18-9.04-2.07-20.63,6.97-25.81l27.69-16.01c-2.07-9.8-3.11-19.97-3.11-30.33s1.04-20.44,3.11-30.23l-27.69-16.01c-9.04-5.18-12.15-16.86-6.97-25.9l27.69-47.94c5.27-9.04,16.86-12.15,25.9-6.88l27.69,16.01c15.07-13.47,32.87-23.92,52.46-30.33v-32.02c0-10.36,8.48-18.93,18.93-18.93h0Z"/>
  <path class="st2" d="M259.78,97.07h55.39c6.97,0,13.37,2.83,17.99,7.44l.09.09c4.61,4.61,7.44,11.02,7.44,17.99v27.32c8.48,3.11,16.67,6.88,24.4,11.4,7.82,4.52,15.26,9.7,22.13,15.54l23.64-13.66.47-.28c6.03-3.3,12.81-3.96,18.93-2.26,6.31,1.69,12.06,5.75,15.54,11.87l.19.38,27.22,47.1c.28.38.47.75.66,1.13,3.2,5.93,3.77,12.62,2.17,18.74-1.6,6.22-5.56,11.78-11.4,15.26-.38.19-.66.38-1.04.56l-23.08,13.38c.66,3.58,1.13,7.25,1.51,11.02.56,5.27.85,10.64.85,15.82s-.28,10.55-.85,15.92c-.38,3.67-.85,7.35-1.51,11.02l23.64,13.66h0c6.12,3.48,10.17,9.13,11.87,15.45,1.7,6.31,1.04,13.28-2.54,19.41l-27.41,47.47c-.09.28-.28.66-.56.94-3.49,5.93-9.04,9.79-15.26,11.49-6.12,1.6-12.9,1.04-18.84-2.26-.38-.19-.75-.38-1.04-.66l-23.17-13.28c-6.22,5.28-12.9,9.99-19.87,14.22-8.38,4.99-17.24,9.23-26.37,12.62-.75.28-1.6.38-2.35.38h-102.39c-.94,0-1.79-.19-2.64-.56-9.04-3.3-17.8-7.53-26-12.43-7.06-4.24-13.66-8.95-19.97-14.22l-23.64,13.66h0c-6.12,3.49-13.09,4.24-19.4,2.54-6.31-1.7-11.96-5.84-15.54-11.87l-.19-.38-27.13-47.09c-.28-.38-.47-.75-.66-1.13-3.3-6.03-3.86-12.72-2.26-18.84,1.7-6.12,5.65-11.68,11.49-15.26.28-.19.57-.28.85-.47l23.17-13.38c-.57-3.67-1.13-7.35-1.51-11.02-.47-5.37-.75-10.64-.75-15.92s.28-10.55.75-15.82c.38-3.77.94-7.44,1.51-11.02l-23.55-13.66h-.09c-6.03-3.49-10.17-9.23-11.87-15.54-1.69-6.31-.94-13.28,2.54-19.4,9.33-15.83,18.55-31.93,27.69-47.94h0c3.58-6.12,9.23-10.17,15.54-11.87,6.31-1.7,13.28-1.04,19.4,2.54l23.64,13.66c6.88-5.84,14.32-11.02,22.14-15.54,7.72-4.52,15.92-8.29,24.4-11.4v-27.32c0-6.97,2.92-13.38,7.54-17.99v-.09c4.71-4.61,11.02-7.44,18.08-7.44h0ZM315.16,110.35h-55.39c-3.39,0-6.5,1.32-8.67,3.58h-.09c-2.17,2.26-3.58,5.27-3.58,8.66v32.02c0,2.83-1.79,5.37-4.52,6.31-9.32,3.11-18.18,7.06-26.47,11.87-8.57,4.9-16.39,10.64-23.64,17.05-2.07,1.89-5.18,2.26-7.72.85l-27.69-16.1c-2.92-1.6-6.31-1.98-9.33-1.13-3.11.76-5.84,2.73-7.53,5.65h0l-27.41,47.47c-.09.28-.28.66-.47.94-1.51,2.83-1.79,6.03-1.04,8.95.85,2.92,2.73,5.56,5.46,7.25.28.19.57.29.85.47l26.84,15.54c2.54,1.32,4.05,4.24,3.49,7.25-1.04,4.71-1.69,9.51-2.26,14.32-.47,4.71-.66,9.61-.66,14.6s.19,9.99.66,14.6c.47,4.81,1.22,9.42,2.16,14.03.75,2.83-.47,5.84-3.11,7.44l-27.69,15.92c-2.92,1.7-4.9,4.43-5.75,7.53-.75,3.01-.47,6.41,1.22,9.33l27.5,47.56.19.38c1.7,2.92,4.43,4.9,7.53,5.74,3.01.75,6.41.47,9.23-1.22h.09l27.5-15.92c2.45-1.51,5.65-1.32,7.91.75,6.69,5.93,13.85,11.21,21.57,15.83,7.25,4.33,14.98,8.1,22.98,11.11h100.12c8.1-3.01,15.73-6.78,22.98-11.11,7.72-4.61,14.98-9.98,21.57-15.83,2.07-1.88,5.18-2.26,7.72-.85l27.41,15.83.38.19c2.92,1.69,6.22,1.98,9.32,1.22,3.01-.85,5.75-2.83,7.44-5.74h0l27.41-47.38c.19-.38.38-.66.56-1.04,1.51-2.73,1.7-5.93.94-8.86s-2.64-5.65-5.37-7.35c-.28-.09-.57-.28-.85-.47l-26.94-15.54c-2.54-1.32-4.05-4.24-3.39-7.16.94-4.71,1.7-9.51,2.17-14.41.47-4.61.75-9.51.75-14.6s-.28-9.89-.75-14.6c-.47-4.8-1.22-9.61-2.17-14.32-.57-2.73.66-5.65,3.2-7.06l27.31-15.82.28-.19c2.92-1.7,4.9-4.43,5.75-7.44.85-3.11.47-6.4-1.23-9.32l-27.41-47.66-.28-.38c-1.7-2.92-4.43-4.9-7.44-5.65-3.01-.85-6.22-.56-9.04,1.04l-28.07,16.2v-.09c-2.36,1.42-5.46,1.23-7.72-.75-7.16-6.41-15.07-12.15-23.55-17.05-8.19-4.8-17.05-8.76-26.18-11.77-2.83-.85-4.9-3.39-4.9-6.41v-32.02c0-3.39-1.32-6.41-3.58-8.66h0c-2.26-2.26-5.27-3.58-8.66-3.58h0Z"/>
  <path class="st0" d="M287.47,194.75c-66.5,0-101.26,55.85-101.26,102.2,0,54.44,44.74,80.06,46.44,115.85,1.32,27.41,7.91,31.55,13.47,37.11h82.61c5.56-5.55,12.15-9.7,13.47-37.11,1.79-35.8,46.44-61.41,46.44-115.85,0-46.34-34.66-102.2-101.16-102.2h0Z"/>
  <path class="st2" d="M287.47,201.43c-28.35,0-50.39,10.74-66.12,26.56-18.84,19.02-28.45,45.31-28.45,68.95,0,28.63,13.56,49.26,25.71,67.72,10.36,15.82,19.78,30.33,20.63,47.75,1.04,21.67,5.37,26.75,9.61,30.8h77.24c4.14-4.05,8.48-9.13,9.51-30.8.85-17.42,10.36-31.93,20.72-47.75,12.15-18.46,25.62-39.09,25.62-67.72,0-23.64-9.61-49.92-28.45-68.95-15.64-15.82-37.77-26.56-66.03-26.56h0ZM212.02,218.67c17.9-18.18,43.23-30.61,75.45-30.61s57.46,12.43,75.45,30.61c21.38,21.57,32.31,51.43,32.31,78.28,0,32.59-14.6,54.91-27.79,75.07-9.42,14.22-17.9,27.22-18.56,41.07-1.41,27.88-8.1,34.38-14.22,40.31l-1.13,1.13c-1.22,1.23-2.92,1.98-4.8,1.98h-82.61c-1.69,0-3.39-.66-4.71-1.88l-1.22-1.22c-6.12-5.93-12.81-12.43-14.13-40.31-.66-13.85-9.23-26.85-18.56-41.07-13.19-20.16-27.88-42.48-27.88-75.07,0-26.85,10.93-56.71,32.4-78.28h0Z"/>
  <path class="st2" d="M366.97,296.94c0,3.67-2.92,6.59-6.59,6.59s-6.69-2.92-6.69-6.59c0-8.1-1.6-16.39-4.52-24.11-3.01-8.01-7.35-15.45-12.62-21.66-4.43-4.99-9.23-9.14-14.6-12.43-5.37-3.3-11.3-5.65-17.61-7.16-3.48-.85-5.75-4.43-4.9-8.01.85-3.58,4.43-5.75,8.01-4.9,7.63,1.79,14.79,4.71,21.48,8.76,6.4,3.96,12.34,9.04,17.71,15.16,6.31,7.35,11.4,16.2,14.98,25.53,3.48,9.33,5.37,19.12,5.37,28.83h0ZM275.6,217.16c3.58-.47,6.97,2.07,7.44,5.75.47,3.58-2.17,6.88-5.75,7.35-2.73.38-5.46.94-8.1,1.6-2.54.66-5.09,1.51-7.63,2.54-3.39,1.41-7.25-.28-8.67-3.67-1.32-3.39.28-7.25,3.67-8.67,2.92-1.13,6.03-2.16,9.23-3.01,3.2-.85,6.4-1.42,9.79-1.89h0Z"/>
  <path class="st2" d="M299.43,345.17l10.93-30.8c-1.88.56-3.86,1.04-5.75,1.51-6.5,1.41-13,2.07-19.41,1.98-5.93,0-11.77-.76-17.52-2.07-1.04-.28-2.16-.56-3.2-.85l10.93,30.8c.28.85.57,1.7.66,2.54.19.85.28,1.7.28,2.54h-.09v92.4h22.04v-92.4c0-.94.09-1.98.38-3.11.19-.85.38-1.69.75-2.54h0ZM327.59,305.33l-15.63,44.27h-.09l-.09.38c-.09.19-.09.28-.09.47-.09,0-.09.19-.09.38v99.09c0,3.67-2.92,6.59-6.59,6.59h-35.32c-3.67,0-6.59-3.01-6.59-6.59v-99.09h-.09v-.38c0-.09,0-.19-.09-.28l-15.64-44.08c-.57-1.6-.47-3.39.28-4.99,1.51-3.39,5.46-4.81,8.76-3.3,4.71,2.17,9.51,3.86,14.41,4.99,4.9,1.23,9.8,1.79,14.69,1.89,5.37.09,10.83-.47,16.39-1.7,5.46-1.22,11.02-3.2,16.67-5.74,1.51-.75,3.39-.94,5.08-.28,3.48,1.22,5.28,4.99,4.05,8.38h0Z"/>
</svg>