<?xml version="1.0" encoding="UTF-8"?>
<svg id="Layer_1" xmlns="http://www.w3.org/2000/svg" version="1.1" viewBox="0 0 574.86 553.57">
  <!-- Generator: Adobe Illustrator 30.3.0, SVG Export Plug-In . SVG Version: 2.1.3 Build 182)  -->
  <defs>
    <style>
      .st0 {
        fill: #f9f5ed;
      }

      .st0, .st1 {
        fill-rule: evenodd;
      }

      .st2 {
        fill: #1f523c;
      }

      .st1 {
        fill: #afceb3;
      }
    </style>
  </defs>
  <path class="st0" d="M324.53,104.61h119.94c9.74,0,17.72,7.98,17.72,17.72v120.04h-46.24c4.58-5.26,7.3-12.07,7.3-19.66,0-16.45-13.34-29.89-29.89-29.89s-29.89,13.44-29.89,29.89c0,7.59,2.73,14.41,7.3,19.66h-46.24v-46.34c-5.26,4.58-12.17,7.3-19.67,7.3-16.45,0-29.89-13.34-29.89-29.89s13.43-29.89,29.89-29.89c7.5,0,14.41,2.82,19.67,7.4v-46.34Z"/>
  <path class="st2" d="M324.53,97.7h119.94c6.72,0,12.95,2.82,17.33,7.3h.1c4.48,4.48,7.2,10.61,7.2,17.33v120.04c0,3.8-3.12,6.82-6.91,6.82h-46.24c-3.8,0-6.91-3.02-6.91-6.82,0-1.85.68-3.41,1.85-4.67,1.75-2.04,3.12-4.38,4.09-6.91.88-2.43,1.37-5.16,1.37-8.08,0-6.33-2.53-12.07-6.72-16.26-4.19-4.19-9.93-6.72-16.26-6.72s-12.07,2.53-16.26,6.72c-4.19,4.19-6.72,9.93-6.72,16.26,0,2.92.49,5.65,1.36,8.08.97,2.63,2.43,4.97,4.19,7.11,2.53,2.82,2.24,7.11-.58,9.64-1.36,1.17-2.92,1.66-4.58,1.66h-46.24c-3.8,0-6.91-3.02-6.91-6.82v-34.46c-3.99,1.56-8.28,2.34-12.75,2.34-10.13,0-19.37-4.09-25.99-10.81-6.62-6.62-10.71-15.77-10.71-25.99s4.09-19.28,10.71-26c6.62-6.62,15.87-10.71,25.99-10.71,4.48,0,8.76.78,12.75,2.24v-34.37c0-3.8,3.12-6.91,6.91-6.91h0ZM444.47,111.52h-113.13v39.43c0,1.56-.58,3.21-1.65,4.48-2.53,2.82-6.82,3.11-9.74.68-2.04-1.85-4.48-3.31-7.01-4.19-2.43-.97-5.16-1.46-8.08-1.46-6.33,0-12.07,2.53-16.26,6.72-4.19,4.19-6.72,9.93-6.72,16.26s2.53,12.17,6.72,16.36c4.19,4.09,9.93,6.72,16.26,6.72,2.92,0,5.65-.49,8.08-1.46,2.53-.88,4.87-2.34,6.91-4.09,1.17-1.07,2.82-1.75,4.67-1.75,3.7,0,6.81,3.02,6.81,6.82v39.43h27.55c-1.46-3.99-2.34-8.28-2.34-12.75,0-10.13,4.19-19.28,10.81-26,6.62-6.62,15.87-10.71,25.99-10.71s19.38,4.09,26,10.71c6.62,6.72,10.81,15.87,10.81,26,0,4.48-.88,8.76-2.34,12.75h27.55v-113.13c0-2.92-1.27-5.65-3.21-7.69-1.95-1.95-4.67-3.12-7.69-3.12h0Z"/>
  <path class="st1" d="M112.68,311.2v-119.94c0-9.73,7.98-17.81,17.72-17.81h120.04v46.34c-5.26-4.57-12.17-7.3-19.66-7.3-16.45,0-29.89,13.34-29.89,29.89s13.43,29.89,29.89,29.89c7.5,0,14.41-2.82,19.66-7.3v46.24h-46.34c4.58,5.26,7.3,12.17,7.3,19.67,0,16.45-13.34,29.89-29.89,29.89s-29.89-13.44-29.89-29.89c0-7.5,2.82-14.41,7.3-19.67h-46.25Z"/>
  <path class="st2" d="M105.76,311.2v-119.94c0-6.81,2.82-12.95,7.2-17.43h.1-.1c4.48-4.48,10.61-7.2,17.43-7.2h120.04c3.8,0,6.82,3.02,6.82,6.82v46.34c0,3.8-3.02,6.91-6.82,6.91-1.85,0-3.51-.68-4.67-1.85-2.05-1.75-4.38-3.12-6.91-4.09-2.43-.88-5.16-1.46-8.08-1.46-6.33,0-12.07,2.63-16.26,6.82-4.19,4.09-6.72,9.93-6.72,16.26s2.53,12.07,6.72,16.26c4.19,4.19,9.93,6.72,16.26,6.72,2.92,0,5.64-.49,8.08-1.36,2.53-.97,4.96-2.43,7.01-4.28,2.92-2.43,7.2-2.14,9.74.68,1.07,1.36,1.66,2.92,1.66,4.58v46.24c0,3.8-3.02,6.91-6.82,6.91h-34.46c1.46,3.99,2.34,8.28,2.34,12.75,0,10.13-4.19,19.28-10.81,26-6.62,6.62-15.87,10.71-25.99,10.71s-19.37-4.09-25.99-10.71c-6.62-6.72-10.71-15.87-10.71-26,0-4.48.78-8.76,2.24-12.75h-34.37c-3.8,0-6.91-3.12-6.91-6.91h0ZM119.49,191.26v113.13h39.43c1.65,0,3.21.49,4.57,1.66,2.82,2.53,3.12,6.81.68,9.74-1.85,2.04-3.31,4.38-4.28,7.01-.88,2.43-1.36,5.16-1.36,8.08,0,6.33,2.53,12.07,6.72,16.26,4.19,4.19,9.93,6.72,16.26,6.72s12.17-2.53,16.26-6.72c4.19-4.19,6.82-9.93,6.82-16.26,0-2.92-.59-5.65-1.46-8.08-.97-2.53-2.34-4.87-4.09-6.91-1.17-1.27-1.85-2.82-1.85-4.67,0-3.8,3.11-6.81,6.91-6.81h39.43v-27.55c-3.99,1.46-8.27,2.24-12.75,2.24-10.13,0-19.28-4.09-26-10.71-6.62-6.72-10.71-15.87-10.71-26s4.09-19.37,10.71-25.99c6.72-6.62,15.87-10.81,26-10.81,4.48,0,8.76.88,12.75,2.34v-27.55h-113.13c-3.02,0-5.74,1.27-7.69,3.21h0c-1.95,1.95-3.21,4.67-3.21,7.69h0Z"/>
  <path class="st1" d="M250.44,448.96h-120.04c-9.74,0-17.72-7.98-17.72-17.72v-120.04h46.25c-4.48,5.26-7.3,12.17-7.3,19.67,0,16.45,13.43,29.89,29.89,29.89s29.89-13.44,29.89-29.89c0-7.5-2.73-14.41-7.3-19.67h46.34v46.34c5.16-4.58,12.07-7.3,19.57-7.3,16.55,0,29.89,13.34,29.89,29.89s-13.34,29.89-29.89,29.89c-7.5,0-14.41-2.82-19.57-7.4v46.34Z"/>
  <path class="st2" d="M250.44,455.87h-120.04c-6.82,0-12.95-2.82-17.43-7.3-4.38-4.38-7.2-10.61-7.2-17.33v-120.04c0-3.8,3.12-6.81,6.91-6.81h46.25c3.8,0,6.91,3.02,6.91,6.81,0,1.85-.68,3.41-1.85,4.67-1.75,2.04-3.11,4.38-4.09,6.91-.88,2.43-1.36,5.16-1.36,8.08,0,6.33,2.53,12.07,6.72,16.26,4.19,4.19,9.93,6.72,16.26,6.72s12.17-2.53,16.26-6.72c4.19-4.19,6.82-9.93,6.82-16.26,0-2.92-.59-5.65-1.46-8.08-.97-2.63-2.44-4.97-4.19-7.01-2.53-2.92-2.24-7.2.58-9.74,1.36-1.17,2.92-1.66,4.58-1.66h46.34c3.8,0,6.82,3.02,6.82,6.81v34.46c3.99-1.46,8.27-2.34,12.75-2.34,10.12,0,19.37,4.09,25.99,10.81,6.62,6.62,10.81,15.87,10.81,25.99s-4.19,19.28-10.81,25.99c-6.62,6.62-15.87,10.71-25.99,10.71-4.48,0-8.76-.78-12.75-2.24v34.37c0,3.8-3.02,6.91-6.82,6.91h0ZM130.4,442.14h113.13v-39.53c0-1.56.58-3.21,1.65-4.48,2.53-2.82,6.82-3.12,9.74-.68,2.05,1.85,4.48,3.31,7.01,4.28,2.44.88,5.16,1.36,8.08,1.36,6.33,0,12.07-2.53,16.26-6.72,4.19-4.19,6.72-9.93,6.72-16.26s-2.53-12.17-6.72-16.26c-4.19-4.19-9.93-6.81-16.26-6.81-2.92,0-5.65.49-8.08,1.46-2.53.97-4.87,2.34-6.91,4.09-1.17,1.17-2.82,1.85-4.57,1.85-3.8,0-6.91-3.12-6.91-6.91v-39.43h-27.55c1.46,3.99,2.34,8.28,2.34,12.75,0,10.13-4.19,19.28-10.81,26-6.62,6.62-15.87,10.71-25.99,10.71s-19.37-4.09-25.99-10.71c-6.62-6.72-10.71-15.87-10.71-26,0-4.48.78-8.76,2.24-12.75h-27.55v113.13c0,2.92,1.27,5.65,3.21,7.69,1.95,1.95,4.67,3.21,7.69,3.21h0Z"/>
  <path class="st1" d="M388.1,311.2v120.04c0,9.74-7.98,17.72-17.72,17.72h-119.94v-46.34c5.16,4.57,12.07,7.4,19.57,7.4,16.55,0,29.89-13.44,29.89-29.89s-13.34-29.89-29.89-29.89c-7.5,0-14.41,2.72-19.57,7.3v-46.34h46.24c-4.58-5.26-7.3-12.07-7.3-19.57,0-16.55,13.34-29.89,29.89-29.89s29.89,13.34,29.89,29.89c0,7.5-2.72,14.31-7.3,19.57h46.25Z"/>
  <path class="st2" d="M395.01,311.2v120.04c0,6.72-2.73,12.95-7.2,17.33l-.49.49c-4.38,4.19-10.42,6.82-16.94,6.82h-119.94c-3.8,0-6.91-3.12-6.91-6.91v-46.34c0-3.8,3.12-6.82,6.91-6.82,1.75,0,3.41.68,4.57,1.75,2.05,1.85,4.38,3.21,6.91,4.19,2.44.88,5.16,1.36,8.08,1.36,6.33,0,12.07-2.53,16.26-6.72,4.19-4.19,6.72-9.93,6.72-16.26s-2.53-12.17-6.72-16.26c-4.19-4.19-9.93-6.81-16.26-6.81-2.92,0-5.65.49-8.08,1.46-2.53.97-4.96,2.44-7.01,4.19-2.92,2.53-7.2,2.24-9.74-.68-1.07-1.26-1.65-2.92-1.65-4.48v-46.34c0-3.8,3.12-6.81,6.91-6.81h34.37c-1.46-3.99-2.34-8.37-2.34-12.75,0-10.13,4.19-19.37,10.81-26,6.62-6.62,15.87-10.81,25.99-10.81s19.37,4.19,25.99,10.81c6.62,6.62,10.81,15.87,10.81,26,0,4.38-.88,8.76-2.34,12.75h34.37c3.8,0,6.91,3.02,6.91,6.81h0ZM381.28,431.24v-113.13h-39.43c-1.65,0-3.21-.58-4.58-1.75-2.82-2.43-3.12-6.81-.68-9.64,1.85-2.04,3.31-4.48,4.28-7.01.88-2.43,1.36-5.16,1.36-8.08,0-6.33-2.53-12.17-6.72-16.26-4.19-4.19-9.93-6.82-16.26-6.82s-12.07,2.63-16.26,6.82c-4.19,4.09-6.72,9.93-6.72,16.26,0,2.92.49,5.65,1.36,8.08.97,2.53,2.34,4.77,4.09,6.91,1.17,1.17,1.85,2.82,1.85,4.58,0,3.8-3.12,6.91-6.91,6.91h-39.43v27.55c3.99-1.46,8.27-2.34,12.75-2.34,10.12,0,19.37,4.09,25.99,10.81,6.62,6.62,10.81,15.87,10.81,25.99s-4.19,19.28-10.81,25.99c-6.62,6.62-15.87,10.71-25.99,10.71-4.48,0-8.76-.78-12.75-2.24v27.55h113.13c2.82,0,5.45-1.17,7.4-2.92l.29-.29c1.95-2.04,3.21-4.77,3.21-7.69h0Z"/>
</svg>