<?xml version="1.0" encoding="UTF-8"?>
<svg id="Layer_1" xmlns="http://www.w3.org/2000/svg" version="1.1" viewBox="0 0 574.9 553.6">
  <!-- Generator: Adobe Illustrator 30.3.0, SVG Export Plug-In . SVG Version: 2.1.3 Build 182)  -->
  <defs>
    <style>
      .st0 {
        fill: #f9f5ed;
      }

      .st1 {
        fill: #afceb3;
      }

      .st2 {
        fill: #1f523c;
      }
    </style>
  </defs>
  <path class="st1" d="M322.1,210.2c-9.4,7.8-21.5,12.5-34.7,12.5s-25.3-4.7-34.7-12.5c-15.3,7.1-27.3,20.2-27.3,41.9v28.4c0,4.3,3.5,7.8,7.8,7.8h108.4c4.4,0,7.8-3.5,7.8-7.8v-28.4c0-21.6-12-34.7-27.3-41.9Z"/>
  <path class="st2" d="M341.6,294.7h-108.4c-7.9,0-14.3-6.4-14.3-14.3v-28.4c0-21.7,10.7-38.2,31-47.7l3.7-1.7,3.2,2.6c8.6,7.1,19.4,11,30.6,11s22-3.9,30.6-11l3.2-2.6,3.7,1.7c20.3,9.5,31,26,31,47.7v28.4c0,7.9-6.4,14.3-14.3,14.3ZM252,217.8c-13.3,7.4-20.1,18.9-20.1,34.2v28.4c0,.7.6,1.3,1.3,1.3h108.4c.7,0,1.3-.6,1.3-1.3v-28.4c0-15.3-6.8-26.8-20.1-34.2-10.3,7.4-22.7,11.4-35.4,11.4s-25.1-4-35.4-11.4Z"/>
  <circle class="st0" cx="287.4" cy="168.2" r="37.4" transform="translate(-4.6 8.2) rotate(-1.6)"/>
  <path class="st2" d="M287.4,212.1c-24.2,0-43.9-19.7-43.9-43.9s19.7-43.9,43.9-43.9,43.9,19.7,43.9,43.9-19.7,43.9-43.9,43.9ZM287.4,137.2c-17.1,0-30.9,13.9-30.9,30.9s13.9,30.9,30.9,30.9,30.9-13.9,30.9-30.9-13.9-30.9-30.9-30.9Z"/>
  <path class="st1" d="M186.8,177.7c-3.9.3-7.4,2.2-9.8,5.3l-66.7,85.6c-6.2,8-9.1,18-8.1,28.1l5.1,52.5c.3,3.2-.6,6.4-2.6,9l-12.1,15.4c-1.9,2.5-1.4,6,1.1,7.9l47.1,34.9c2.4,1.8,5.9,1.3,7.7-1.1l45.5-58.7c4.4-6.2,6.8-13.8,6.5-21.4l-2.5-69.5c-.1-3.1-1.5-6.1-3.8-8.3-2.3-2.1-5.4-3.2-8.5-3.1-5.3.3-9.8,4.1-11,9.4l-.6,2.8c-3.1,14.7-5,29.7-5.5,44.8l-.5,14c0,2.1-1,4.1-2.5,5.5-1.5,1.4-3.5,2.2-5.7,2.1-2.1,0-4-1-5.5-2.5-1.4-1.5-2.2-3.6-2.1-5.7l.5-13.2c.6-16.6,2.6-33.2,6.1-49.5l.3-1.6c2.6-12.1,12.8-21.1,25.1-21.8,1.1,0,2.2,0,3.3,0l13.4-43.1c1.5-5,0-10.6-3.7-14.1-2.9-2.7-6.6-4-10.5-3.7Z"/>
  <path class="st2" d="M144,423.9c-2.5,0-5-.8-7.2-2.4l-47.1-34.9c-2.6-2-4.3-4.8-4.8-8.1-.4-3.3.4-6.5,2.5-9.1l12.1-15.4c1-1.2,1.4-2.8,1.3-4.3l-5.1-52.5c-1.1-11.8,2.2-23.4,9.5-32.7l66.7-85.6c3.5-4.6,8.7-7.3,14.5-7.8h0c5.8-.5,11.3,1.5,15.5,5.5,5.6,5.2,7.7,13.4,5.4,20.8l-15,48-5.1-.4c-.7,0-1.5,0-2.6,0-9.2.5-17,7.4-19,16.7l-.3,1.6c-3.4,15.9-5.4,32.1-6,48.3l-.5,13.2c0,.4.1.7.4,1,.2.3.6.4,1,.4.5,0,.8-.2,1-.4.3-.3.4-.6.4-1l.5-14c.6-15.4,2.4-30.8,5.6-45.9l.6-2.8c1.7-8.1,8.7-14.1,17-14.5,4.9-.2,9.6,1.5,13.2,4.8,3.6,3.4,5.7,7.9,5.9,12.8l2.5,69.5c.3,9-2.4,18-7.7,25.4v.2c-.1,0-45.6,58.7-45.6,58.7-2.4,3-5.9,4.7-9.6,4.7ZM98.3,376.8l45.6,33.8,44.8-57.9c3.6-5,5.4-11.1,5.2-17.3l-2.5-69.5c0-1.4-.7-2.7-1.8-3.7-1-.9-2.3-1.4-3.7-1.3-2.4.1-4.4,1.8-4.9,4.2l-.6,2.8c-3,14.3-4.8,29-5.4,43.6l-.5,14c-.1,3.9-1.8,7.4-4.6,10-2.8,2.6-6.4,4-10.3,3.8-3.9-.2-7.4-1.8-10-4.6-2.6-2.8-4-6.5-3.8-10.4l.5-13.2c.6-17,2.7-34,6.3-50.6l.3-1.6c3.1-14.6,15.3-25.5,29.9-26.9l12-38.6c.8-2.6,0-5.6-2-7.5-1.6-1.5-3.5-2.2-5.6-2h0c-2.1.2-3.9,1.1-5.2,2.8l-66.7,85.6c-5.2,6.7-7.6,15-6.8,23.4l5.1,52.5c.5,4.9-.9,9.7-4,13.6l-11.5,14.7Z"/>
  <path class="st1" d="M415,332.9c-2.1,0-4.1-.7-5.7-2.1-1.5-1.4-2.4-3.4-2.5-5.5l-.5-14c-.5-15-2.4-30-5.5-44.8l-.6-2.8c-1.1-5.3-5.6-9.1-11-9.4-3.2-.2-6.2.9-8.5,3.1-2.3,2.2-3.7,5.1-3.8,8.3l-2.5,69.5c-.3,7.6,2,15.2,6.5,21.4l45.5,58.7c1.9,2.4,5.3,2.9,7.7,1.1l47.1-34.9c2.5-1.9,3-5.4,1.1-7.9l-12.1-15.4c-2-2.5-2.9-5.8-2.6-9l5.1-52.5c1-10.1-1.9-20.1-8.1-28.1l-66.7-85.6c-2.4-3.1-5.9-5-9.8-5.3-3.9-.3-7.7,1-10.5,3.7-3.8,3.5-5.3,9.2-3.7,14.1l13.4,43.1c1.1,0,2.2,0,3.3,0,12.3.7,22.5,9.8,25.1,21.8l.3,1.6c3.5,16.3,5.5,32.8,6.1,49.5l.5,13.2c0,2.1-.7,4.1-2.1,5.7-1.4,1.5-3.4,2.4-5.5,2.5"/>
  <path class="st2" d="M430.9,423.9c-3.6,0-7.2-1.6-9.6-4.7l-45.6-58.9c-5.3-7.4-8-16.4-7.7-25.4l2.5-69.5c.2-4.9,2.3-9.4,5.9-12.8,3.7-3.4,8.4-5.1,13.3-4.8,8.3.4,15.3,6.4,17,14.5l.6,2.8c3.2,15.1,5.1,30.5,5.6,45.9l.5,14c0,.4.2.7.4,1,.2.2.5.4,1,.4.4,0,.7-.2,1-.5.3-.3.3-.7.3-.9l-.5-13.3c-.6-16.2-2.6-32.5-6-48.3l-.3-1.6c-2-9.3-9.8-16.2-19.1-16.7-1,0-1.8,0-2.5,0l-5.1.4-15-48c-2.3-7.4-.1-15.6,5.5-20.8,4.2-4,9.7-5.9,15.5-5.5,5.8.4,10.9,3.2,14.5,7.8l66.7,85.6c7.3,9.3,10.6,20.9,9.5,32.7l-5.1,52.5c-.2,1.6.3,3.1,1.3,4.3l12.1,15.4c2,2.6,2.9,5.8,2.5,9.1-.4,3.3-2.1,6.1-4.8,8.1l-47.1,34.9c-2.1,1.6-4.7,2.4-7.2,2.4ZM386.2,352.7l44.8,57.9,45.6-33.8-11.5-14.7c-3-3.9-4.4-8.7-4-13.6l5.1-52.5c.8-8.4-1.6-16.8-6.8-23.4l-66.7-85.6c-1.3-1.7-3.1-2.6-5.2-2.8-2.1-.2-4,.5-5.5,2-2,1.9-2.8,4.9-2,7.5l12,38.6c14.6,1.3,26.8,12.2,29.9,26.9l.3,1.6c3.6,16.6,5.7,33.6,6.3,50.6l.5,13.2c.1,3.8-1.2,7.5-3.8,10.3-2.6,2.8-6.2,4.4-10,4.6h0c-3.8.1-7.5-1.3-10.3-3.8-2.8-2.6-4.4-6.2-4.6-10l-.5-14c-.5-14.6-2.3-29.3-5.4-43.6l-.6-2.8c-.5-2.4-2.5-4.1-4.9-4.2-1.4,0-2.7.4-3.8,1.4-1,1-1.6,2.3-1.7,3.7l-2.5,69.5c-.2,6.1,1.6,12.2,5.2,17.3Z"/>
  <path class="st0" d="M331.4,321.2c-12.4-6.3-27.6-2.7-37.4,7.1l-6.5,6.5-7.4-7.4c-14.9-14.9-40.9-12-51.5,8.7-6.3,12.3-2.7,27.6,7.1,37.4l47.6,47.6c2.3,2.3,6,2.3,8.3,0l48.5-48.5c14.9-14.9,12-40.9-8.7-51.5Z"/>
  <path class="st2" d="M287.5,429.4c-3.3,0-6.4-1.3-8.7-3.6l-47.6-47.6c-12.2-12.2-15.6-30.7-8.3-45,5.9-11.5,16.3-19.2,28.7-21.1,12.1-1.9,24.6,2.1,33.2,10.8l2.8,2.8,1.9-1.9c12.2-12.2,30.7-15.6,45-8.3h0c11.5,5.9,19.2,16.3,21.1,28.7,1.9,12.1-2.1,24.5-10.8,33.2l-48.5,48.5c-2.3,2.3-5.4,3.6-8.7,3.6ZM257.4,324.6c-1.3,0-2.6.1-3.9.3-8.2,1.3-15.2,6.5-19.1,14.2-4.8,9.3-2.3,21.6,5.9,29.8l47.2,47.2,48-48c5.7-5.7,8.4-14,7.2-22-1.3-8.2-6.5-15.2-14.2-19.1h0c-9.3-4.8-21.6-2.3-29.8,5.9l-11.1,11.1-12-12c-4.8-4.8-11.3-7.5-18.1-7.5Z"/>
</svg>