<?xml version="1.0" encoding="UTF-8"?>
<svg id="Layer_1" xmlns="http://www.w3.org/2000/svg" version="1.1" viewBox="0 0 574.86 553.57">
  <!-- Generator: Adobe Illustrator 30.3.0, SVG Export Plug-In . SVG Version: 2.1.3 Build 182)  -->
  <defs>
    <style>
      .st0 {
        fill: #f9f5ed;
      }

      .st1 {
        fill: #afceb3;
      }

      .st2 {
        fill: #1f523c;
      }
    </style>
  </defs>
  <rect class="st1" x="171.35" y="78.42" width="116.08" height="376.92"/>
  <rect class="st1" x="263.15" y="220.77" width="116.08" height="246.34"/>
  <circle class="st0" cx="146.23" cy="348.09" r="50.85"/>
  <ellipse class="st0" cx="422.77" cy="332.66" rx="55.36" ry="55.86"/>
  <polygon class="st0" points="159.23 467.11 187.48 438.33 209.44 418.77 233.88 402.11 267.53 410.84 277.55 425.16 295.74 417.43 322.63 421.12 327.38 429.82 349.78 430.35 372.64 440.11 390.65 426.92 410.68 432.24 426.93 440.37 432.83 457.24 434.41 472.8 158.59 475.49 159.23 467.11"/>
  <path class="st2" d="M203.86,103.95h-11.96v20.84h11.96v-20.84ZM203.86,141.79h-11.96v20.84h11.96v-20.84ZM233.88,103.95h-11.96v20.84h11.96v-20.84ZM233.88,141.79h-11.96v20.84h11.96v-20.84ZM263.91,103.95h-11.96v20.84h11.96v-20.84ZM263.91,141.79h-11.96v20.84h11.96v-20.84ZM203.86,178h-11.96v20.84h11.96v-20.84ZM203.86,215.84h-11.96v20.84h11.96v-20.84ZM233.88,178h-11.96v20.84h11.96v-20.84ZM233.88,215.84h-11.96v20.84h11.96v-20.84ZM263.91,178h-11.96v20.84h11.96v-20.84ZM203.86,253.2h-11.96v20.84h11.96v-20.84ZM233.88,253.2h-11.96v20.84h11.96v-20.84ZM233.88,291.04h-11.96v20.84h11.96v-20.84ZM233.88,327.25h-11.96v20.84h11.96v-20.84ZM233.88,365.04h-11.96v20.84h11.96v-20.84ZM437.25,449.34c-1.6-5.44-4.25-10.3-7.67-14.41v-37.49c33.87-3.03,60.51-31.55,60.51-66.16,0-36.63-29.83-66.44-66.49-66.44-14.56,0-28.04,4.71-39.01,12.67v-55.08c0-5.17-4.19-9.36-9.36-9.36h-84.34V84.05c0-5.61-4.54-10.15-10.15-10.15h-105.61c-5.61,0-10.15,4.54-10.15,10.15v204.71c-5.92-1.9-12.22-2.94-18.76-2.94-33.89,0-61.45,27.55-61.45,61.41,0,31.84,24.38,58.1,55.47,61.11v58.77h-55.47v11.96h207.88l.07.61,5.63-.61h191.75v-11.96h-51.77c1.03-5.87.67-11.83-1.07-17.77ZM423.6,276.8c30.07,0,54.53,24.44,54.53,54.48,0,28.02-21.29,51.16-48.55,54.14v-17.94c11.77-1.39,20.93-11.41,20.93-23.54v-5.98h-11.96v5.98c0,5.52-3.83,10.14-8.97,11.4v-25.55h-11.96v25.85c-5.63-.5-10.06-5.55-10.06-11.7v-5.98h-11.96v5.98c0,12.75,9.8,23.18,22.02,23.68v17.8c-12.89-1.41-24.43-7.33-33.03-16.13v-.4h-.38c-9.36-9.79-15.14-23.03-15.14-37.61,0-30.04,24.46-54.48,54.53-54.48ZM417.63,397.44v27.71c-9.06-4.88-19.96-6.35-30.59-3.23-.82.24-1.64.51-2.44.8v-37.68c9.45,6.86,20.76,11.3,33.03,12.4ZM372.64,228.54v60.13c-9.68,11.54-15.52,26.41-15.52,42.61s5.84,31.07,15.52,42.61v55.71c-1.1.91-2.17,1.87-3.17,2.89-10.56-8.34-24.08-11.86-37.37-9.69-7.99-9.73-20.01-11.15-31.92-11.15-6.96,0-13.81,1.82-19.84,5.2-4.5-6.35-10.42-11.43-17.19-14.91v-173.41c0-1.94,1.57-3.51,3.51-3.51h102.46c1.94,0,3.51,1.57,3.51,3.51ZM180.66,85.86h94.56c2.05,0,3.72,1.66,3.72,3.72v123.5h-18.37c-5.17,0-9.36,4.19-9.36,9.36v175.28c-3.23-.68-6.56-1.04-9.95-1.04-21.6,0-40.27,14.32-46.09,34.68-6.64.73-12.85,3.22-18.2,6.98v-37.96c18.35-10.63,30.74-30.47,30.74-53.15,0-13.15-4.17-25.34-11.24-35.34h7.42v-20.84h-11.96v15.15c-4.31-4.78-9.36-8.87-14.96-12.12V89.57c0-2.05,1.66-3.72,3.72-3.72ZM140.25,364.87c-4.64-.7-8.23-4.99-8.23-10.16v-5.98h-11.96v5.98c0,11.79,8.94,21.47,20.19,22.19v19.4c-24.48-2.96-43.52-23.83-43.52-49.08,0-27.27,22.2-49.45,49.5-49.45s49.5,22.18,49.5,49.45c0,25.24-19.04,46.12-43.52,49.08v-19.57c10.82-1.49,19.19-10.8,19.19-22.02v-5.98h-11.96v5.98c0,4.6-3.05,8.51-7.23,9.81v-23.28h-11.96v23.63ZM164.98,451.13c-2.92,4.8-4.92,10.22-5.76,15.98h-7.02v-58.77c4.41-.43,8.69-1.33,12.78-2.64v45.44ZM291.83,467.11h-120.48c2.72-13.51,14.4-24.02,27.91-24.02l5.66.11.9-5.02c3.08-17.12,17.98-29.55,35.42-29.55,13.49,0,25.74,7.44,31.96,19.42l3.37,6.49,5.69-4.6c5.12-4.14,11.32-6.33,17.91-6.33,9.37,0,14.95,1.24,18.62,3.34-16.1,7.58-26.39,22.83-26.97,40.16ZM426.16,466.89l-.05.22h-122.31c.58-13.86,9.38-25.59,23.26-30.66l.12.18.71-.48c.57-.2,1.15-.38,1.74-.55,12.94-3.79,26.79-.09,36.14,9.65l5.07,5.28,4.16-6.02c3.75-5.42,9.08-9.26,15.41-11.11,15.08-4.42,30.95,4.24,35.38,19.31,1.4,4.77,1.53,9.54.38,14.18ZM293.84,239.52h-11.96v34.44h11.96v-34.44ZM323.87,239.52h-11.96v34.44h11.96v-34.44ZM353.89,239.52h-11.96v34.44h11.96v-34.44ZM281.89,311.95h11.96v-20.84h-11.96v20.84ZM311.91,311.95h11.96v-20.84h-11.96v20.84ZM341.94,311.95h11.96v-20.84h-11.96v20.84ZM281.89,350.98h11.96v-20.84h-11.96v20.84ZM311.91,350.98h11.96v-20.84h-11.96v20.84ZM341.94,350.98h11.96v-20.84h-11.96v20.84ZM281.89,389.18h11.96v-20.84h-11.96v20.84ZM311.91,389.18h11.96v-20.84h-11.96v20.84ZM341.94,389.18h11.96v-20.84h-11.96v20.84Z"/>
</svg>